<svg width="152" height="44" viewBox="0 0 152 44" fill="#424242" xmlns="http://www.w3.org/2000/svg">
<path d="M0.0739377 0.799998H5.90594V26H0.0739377V0.799998ZM34.8184 26L34.7824 10.88L27.3664 23.336H24.7384L17.3584 11.204V26H11.8864V0.799998H16.7104L26.1424 16.46L35.4304 0.799998H40.2184L40.2904 26H34.8184ZM57.1773 0.799998C59.4093 0.799998 61.3413 1.172 62.9733 1.916C64.6293 2.66 65.9013 3.716 66.7893 5.084C67.6773 6.452 68.1213 8.072 68.1213 9.944C68.1213 11.792 67.6773 13.412 66.7893 14.804C65.9013 16.172 64.6293 17.228 62.9733 17.972C61.3413 18.692 59.4093 19.052 57.1773 19.052H52.1013V26H46.2693V0.799998H57.1773ZM56.8533 14.3C58.6053 14.3 59.9373 13.928 60.8493 13.184C61.7613 12.416 62.2173 11.336 62.2173 9.944C62.2173 8.528 61.7613 7.448 60.8493 6.704C59.9373 5.936 58.6053 5.552 56.8533 5.552H52.1013V14.3H56.8533ZM88.3409 26L83.4809 18.98H83.1929H78.1169V26H72.2849V0.799998H83.1929C85.4249 0.799998 87.3569 1.172 88.9889 1.916C90.6449 2.66 91.9169 3.716 92.8049 5.084C93.6929 6.452 94.1369 8.072 94.1369 9.944C94.1369 11.816 93.6809 13.436 92.7689 14.804C91.8809 16.148 90.6089 17.18 88.9529 17.9L94.6049 26H88.3409ZM88.2329 9.944C88.2329 8.528 87.7769 7.448 86.8649 6.704C85.9529 5.936 84.6209 5.552 82.8689 5.552H78.1169V14.336H82.8689C84.6209 14.336 85.9529 13.952 86.8649 13.184C87.7769 12.416 88.2329 11.336 88.2329 9.944ZM109.954 26.432C106.354 26.432 103.546 25.436 101.53 23.444C99.5375 21.452 98.5415 18.608 98.5415 14.912V0.799998H104.374V14.696C104.374 19.208 106.246 21.464 109.99 21.464C111.814 21.464 113.206 20.924 114.166 19.844C115.126 18.74 115.606 17.024 115.606 14.696V0.799998H121.366V14.912C121.366 18.608 120.358 21.452 118.342 23.444C116.35 25.436 113.554 26.432 109.954 26.432ZM151.357 0.799998L140.449 26H134.689L123.817 0.799998H130.117L137.785 18.8L145.561 0.799998H151.357ZM85.9502 33.2C87.2195 33.2 88.2182 33.5033 88.9462 34.11C89.6742 34.7167 90.0382 35.552 90.0382 36.616C90.0382 37.68 89.6742 38.5153 88.9462 39.122C88.2182 39.7287 87.2195 40.032 85.9502 40.032H83.5282V43H82.1282V33.2H85.9502ZM85.9082 38.814C86.7949 38.814 87.4715 38.6273 87.9382 38.254C88.4049 37.8713 88.6382 37.3253 88.6382 36.616C88.6382 35.9067 88.4049 35.3653 87.9382 34.992C87.4715 34.6093 86.7949 34.418 85.9082 34.418H83.5282V38.814H85.9082ZM96.6557 43.112C95.6664 43.112 94.7751 42.8973 93.9817 42.468C93.1884 42.0293 92.5631 41.4273 92.1057 40.662C91.6577 39.8967 91.4337 39.0427 91.4337 38.1C91.4337 37.1573 91.6577 36.3033 92.1057 35.538C92.5631 34.7727 93.1884 34.1753 93.9817 33.746C94.7751 33.3073 95.6664 33.088 96.6557 33.088C97.6357 33.088 98.5224 33.3073 99.3157 33.746C100.109 34.1753 100.73 34.7727 101.178 35.538C101.626 36.294 101.85 37.148 101.85 38.1C101.85 39.052 101.626 39.9107 101.178 40.676C100.73 41.432 100.109 42.0293 99.3157 42.468C98.5224 42.8973 97.6357 43.112 96.6557 43.112ZM96.6557 41.866C97.3744 41.866 98.0184 41.7027 98.5877 41.376C99.1664 41.0493 99.6191 40.6013 99.9457 40.032C100.282 39.4533 100.45 38.8093 100.45 38.1C100.45 37.3907 100.282 36.7513 99.9457 36.182C99.6191 35.6033 99.1664 35.1507 98.5877 34.824C98.0184 34.4973 97.3744 34.334 96.6557 34.334C95.9371 34.334 95.2837 34.4973 94.6957 34.824C94.1171 35.1507 93.6597 35.6033 93.3237 36.182C92.9971 36.7513 92.8337 37.3907 92.8337 38.1C92.8337 38.8093 92.9971 39.4533 93.3237 40.032C93.6597 40.6013 94.1171 41.0493 94.6957 41.376C95.2837 41.7027 95.9371 41.866 96.6557 41.866ZM103.99 33.2H108.12C109.156 33.2 110.075 33.4053 110.878 33.816C111.68 34.2267 112.301 34.8053 112.74 35.552C113.188 36.2893 113.412 37.1387 113.412 38.1C113.412 39.0613 113.188 39.9153 112.74 40.662C112.301 41.3993 111.68 41.9733 110.878 42.384C110.075 42.7947 109.156 43 108.12 43H103.99V33.2ZM108.036 41.782C108.829 41.782 109.524 41.628 110.122 41.32C110.728 41.012 111.195 40.5827 111.522 40.032C111.848 39.472 112.012 38.828 112.012 38.1C112.012 37.372 111.848 36.7327 111.522 36.182C111.195 35.622 110.728 35.188 110.122 34.88C109.524 34.572 108.829 34.418 108.036 34.418H105.39V41.782H108.036ZM119.938 43.112C118.958 43.112 118.071 42.8973 117.278 42.468C116.494 42.0293 115.878 41.432 115.43 40.676C114.982 39.9107 114.758 39.052 114.758 38.1C114.758 37.148 114.982 36.294 115.43 35.538C115.878 34.7727 116.499 34.1753 117.292 33.746C118.085 33.3073 118.972 33.088 119.952 33.088C120.717 33.088 121.417 33.2187 122.052 33.48C122.687 33.732 123.228 34.11 123.676 34.614L122.766 35.496C122.029 34.7213 121.109 34.334 120.008 34.334C119.28 34.334 118.622 34.4973 118.034 34.824C117.446 35.1507 116.984 35.6033 116.648 36.182C116.321 36.7513 116.158 37.3907 116.158 38.1C116.158 38.8093 116.321 39.4533 116.648 40.032C116.984 40.6013 117.446 41.0493 118.034 41.376C118.622 41.7027 119.28 41.866 120.008 41.866C121.1 41.866 122.019 41.474 122.766 40.69L123.676 41.572C123.228 42.076 122.682 42.4587 122.038 42.72C121.403 42.9813 120.703 43.112 119.938 43.112ZM131.685 40.55H126.477L125.399 43H123.957L128.395 33.2H129.781L134.233 43H132.763L131.685 40.55ZM131.195 39.43L129.081 34.628L126.967 39.43H131.195ZM138.551 43.112C137.813 43.112 137.099 43 136.409 42.776C135.727 42.5427 135.191 42.244 134.799 41.88L135.317 40.788C135.69 41.124 136.166 41.3993 136.745 41.614C137.333 41.8193 137.935 41.922 138.551 41.922C139.363 41.922 139.969 41.7867 140.371 41.516C140.772 41.236 140.973 40.8673 140.973 40.41C140.973 40.074 140.861 39.8033 140.637 39.598C140.422 39.3833 140.151 39.22 139.825 39.108C139.507 38.996 139.055 38.87 138.467 38.73C137.729 38.5527 137.132 38.3753 136.675 38.198C136.227 38.0207 135.839 37.75 135.513 37.386C135.195 37.0127 135.037 36.5133 135.037 35.888C135.037 35.3653 135.172 34.894 135.443 34.474C135.723 34.054 136.143 33.718 136.703 33.466C137.263 33.214 137.958 33.088 138.789 33.088C139.367 33.088 139.937 33.1627 140.497 33.312C141.057 33.4613 141.537 33.676 141.939 33.956L141.477 35.076C141.066 34.8147 140.627 34.6187 140.161 34.488C139.694 34.348 139.237 34.278 138.789 34.278C137.995 34.278 137.398 34.4227 136.997 34.712C136.605 35.0013 136.409 35.3747 136.409 35.832C136.409 36.168 136.521 36.4433 136.745 36.658C136.969 36.8633 137.244 37.0267 137.571 37.148C137.907 37.26 138.359 37.3813 138.929 37.512C139.666 37.6893 140.259 37.8667 140.707 38.044C141.155 38.2213 141.537 38.492 141.855 38.856C142.181 39.22 142.345 39.71 142.345 40.326C142.345 40.8393 142.205 41.3107 141.925 41.74C141.645 42.16 141.22 42.496 140.651 42.748C140.081 42.9907 139.381 43.112 138.551 43.112ZM146.199 34.418H142.839V33.2H150.945V34.418H147.585V43H146.199V34.418Z"/>
<line x1="74" y1="38" y2="38" stroke="#424242" stroke-width="4"/>
</svg>
